<svg xmlns="http://www.w3.org/2000/svg" width="440" height="280" viewBox="0 0 440 280" role="img" aria-labelledby="title desc">
  <title id="title">Owl Insight Chrome Web Store small promo tile</title>
  <desc id="desc">Owl Insight logo, wordmark, and an abstract score trend on a violet background.</desc>
  <defs>
    <linearGradient id="background" x1="28" y1="18" x2="414" y2="267" gradientUnits="userSpaceOnUse">
      <stop stop-color="#18122B"/>
      <stop offset="0.52" stop-color="#33245D"/>
      <stop offset="1" stop-color="#1A53D6"/>
    </linearGradient>
    <linearGradient id="panel" x1="248" y1="56" x2="405" y2="226" gradientUnits="userSpaceOnUse">
      <stop stop-color="#FFFFFF" stop-opacity="0.18"/>
      <stop offset="1" stop-color="#FFFFFF" stop-opacity="0.07"/>
    </linearGradient>
    <filter id="shadow" x="-50%" y="-50%" width="200%" height="200%">
      <feDropShadow dx="0" dy="8" stdDeviation="12" flood-color="#080512" flood-opacity="0.32"/>
    </filter>
    <clipPath id="logoClip">
      <rect x="0" y="0" width="512" height="512" rx="96"/>
    </clipPath>
  </defs>

  <rect width="440" height="280" fill="url(#background)"/>
  <circle cx="397" cy="34" r="112" fill="#6750A4" opacity="0.24"/>
  <circle cx="416" cy="258" r="94" fill="#FFAA00" opacity="0.10"/>
  <g opacity="0.16" fill="#FFFFFF">
    <circle cx="28" cy="26" r="2"/><circle cx="58" cy="26" r="2"/><circle cx="88" cy="26" r="2"/>
    <circle cx="28" cy="56" r="2"/><circle cx="58" cy="56" r="2"/><circle cx="88" cy="56" r="2"/>
    <circle cx="28" cy="86" r="2"/><circle cx="58" cy="86" r="2"/><circle cx="88" cy="86" r="2"/>
  </g>

  <g transform="translate(28 46)">
    <g transform="scale(.234375)">
      <path d="M256 74v48" stroke="#FFAA00" stroke-width="28" stroke-linecap="round"/>
      <path d="m185 96-28-31M327 96l28-31" stroke="#FFAA00" stroke-width="28" stroke-linecap="round" fill="none"/>
      <path fill="#6750A4" d="M226 137c-32-31-72-45-111-30-49 18-78 70-66 122 12 55 63 91 118 82 25-4 47-16 64-34-52 12-103-18-113-68-9-46 19-91 64-102 15-4 30-3 44 0z"/>
      <path fill="#7FA5FF" d="M286 137c32-31 72-45 111-30 49 18 78 70 66 122-12 55-63 91-118 82-25-4-47-16-64-34 52 12 103-18 113-68 9-46-19-91-64-102-15-4-30-3-44 0z"/>
      <path fill="#FFAA00" d="M241 142c0-9 7-16 15-16s15 7 15 16l-6 126c-1 13-5 25-9 33-4-8-8-20-9-33z"/>
      <path fill="#E9E2FF" d="m256 330 30 26-30 35-30-35z"/>
    </g>
    <text x="0" y="154" fill="#FFFFFF" font-family="Segoe UI, Microsoft YaHei, sans-serif" font-size="28" font-weight="700" letter-spacing="-.4">Owl Insight</text>
    <text x="1" y="180" fill="#E7E0F4" font-family="Segoe UI, Microsoft YaHei, sans-serif" font-size="13" font-weight="500">看见成绩背后的趋势</text>
  </g>

  <g transform="translate(246 52)" filter="url(#shadow)">
    <rect width="166" height="176" rx="24" fill="url(#panel)" stroke="#FFFFFF" stroke-opacity="0.18"/>
    <rect x="18" y="18" width="64" height="8" rx="4" fill="#FFFFFF" opacity="0.82"/>
    <rect x="18" y="34" width="96" height="5" rx="2.5" fill="#FFFFFF" opacity="0.22"/>
    <path d="M20 125C40 119 45 92 66 98C85 104 92 74 111 79C128 83 134 58 148 61" fill="none" stroke="#FFB74D" stroke-width="5" stroke-linecap="round" stroke-linejoin="round"/>
    <path d="M20 125C40 119 45 92 66 98C85 104 92 74 111 79C128 83 134 58 148 61V145H20Z" fill="#FFAA00" opacity="0.10"/>
    <g fill="#FFB74D" stroke="#FFFFFF" stroke-width="2">
      <circle cx="20" cy="125" r="4"/><circle cx="66" cy="98" r="4"/><circle cx="111" cy="79" r="4"/><circle cx="148" cy="61" r="4"/>
    </g>
    <rect x="18" y="151" width="39" height="7" rx="3.5" fill="#AFC6FF" opacity="0.72"/>
    <rect x="64" y="151" width="28" height="7" rx="3.5" fill="#FFFFFF" opacity="0.18"/>
  </g>
</svg>
