<svg xmlns="http://www.w3.org/2000/svg" viewBox="0 0 512 512" role="img" aria-labelledby="title description">
  <title id="title">Owl Insight logo</title>
  <desc id="description">A rounded owl mark with crescent eyes and a central insight beam.</desc>
  <g fill="none" stroke-linecap="round">
    <path d="M256 74v48" stroke="#FFAA00" stroke-width="28"/>
    <path d="m185 96-28-31" stroke="#FFAA00" stroke-width="28"/>
    <path d="m327 96 28-31" stroke="#FFAA00" stroke-width="28"/>
  </g>

  <path
    fill="#6750A4"
    d="M226 137c-32-31-72-45-111-30-49 18-78 70-66 122 12 55 63 91 118 82 25-4 47-16 64-34-52 12-103-18-113-68-9-46 19-91 64-102 15-4 30-3 44 0z"
  />
  <path
    fill="#1A53D6"
    d="M286 137c32-31 72-45 111-30 49 18 78 70 66 122-12 55-63 91-118 82-25-4-47-16-64-34 52 12 103-18 113-68 9-46-19-91-64-102-15-4-30-3-44 0z"
  />

  <path
    fill="#FFAA00"
    d="M241 142c0-9 7-16 15-16s15 7 15 16l-6 126c-1 13-5 25-9 33-4-8-8-20-9-33z"
  />
  <path fill="#2E2868" d="m256 330 30 26-30 35-30-35z"/>
</svg>
